# xmcd
#
# Track frame offsets:
#  150
#  10165
#  20202
#  29162
#  38120
#  48240
#  56505
#  68527
#  79110
#  89397
#  98217
#  110327
#  117802
#  128077
#  138797
#  148350
#  158542
#  172612
#  185535
#  196625
#  208497
#  219580
#  233207
#  243475
#  252892
#  265097
#  277262
#
# Disc length: 3858 seconds
#
# Revision: 0
# Processed by: cddbd v1.5.1PL2 Copyright (c) Steve Scherf et al.
# Submitted via: Collectorz.com_Music_Collector 6.9
#
DISCID=7f0f101b
DTITLE=Various Artist - Doo-Bop-Jivers - Volume 01
DYEAR=1995
DGENRE=Doo-Wop
TTITLE0=Larks, The - Tippin' In
TTITLE1=Checkmates, The - Buona Sera
TTITLE2=Charms, The - Whadaya Want
TTITLE3=Videos, The - Trickle Trickle
TTITLE4=Kirby Stone Four, The - Baubles Bangles And Beads
TTITLE5=Penguins, The - Be My Lovin' Baby
TTITLE6=Cues, The - Why
TTITLE7=Belaire, The - Louisana Rug Roll
TTITLE8=Diamonds, The - Church Bells May Ring
TTITLE9=Del, The - Vikings - The Big Beat
TTITLE10=Alletcats, The - The Great Pretender
TTITLE11=Four Kings, The - Rag Mop
TTITLE12=KING BROTHERS, The - Mais Oui
TTITLE13=Penguins, The - Cold Heart
TTITLE14=Julian, Don And The Meadowlarks - I Got Tore Up
TTITLE15=Southlanders, The - Torero
TTITLE16=Flamingos, The - Besame Mucho
TTITLE17=Sparks of Rhythm - Handy Man
TTITLE18=Tams, The - Untie Me
TTITLE19=GUM Drops, The - Natural Born Lover
TTITLE20=Parakeets, The - I Love You Like I Do
TTITLE21=Fabulous Demos, The - Once I Had A Love
TTITLE22=King Pins, The - A Lucky Guy
TTITLE23=Original Cadillacs, The - I'll Never Let You Go
TTITLE24=Way, The - Lites - Summertime
TTITLE25=Crume Brothers, The - What Am I Going To Do
TTITLE26=Fortune Tellers, The - Marry Her Joe
EXTD=
EXTT0=
EXTT1=
EXTT2=
EXTT3=
EXTT4=
EXTT5=
EXTT6=
EXTT7=
EXTT8=
EXTT9=
EXTT10=
EXTT11=
EXTT12=
EXTT13=
EXTT14=
EXTT15=
EXTT16=
EXTT17=
EXTT18=
EXTT19=
EXTT20=
EXTT21=
EXTT22=
EXTT23=
EXTT24=
EXTT25=
EXTT26=
PLAYORDER=
